<svg xmlns="http://www.w3.org/2000/svg" data-name="Layer 1" id="Layer_1" version="1.1" width="300" height="300">
    <defs id="defs4">
        <style id="style2">.cls-1{fill:#0039a6}</style>
    </defs>
    <path class="cls-1"
          d="M218.879 183.087a12.127 12.127 0 0 0-14.45-1.654l-3.938-15.986V164.777a3.937 3.937 0 0 0-.788-1.141l-5.552-5.552a11.812 11.812 0 0 0-16.734 0l-2.795-2.835 52.132-52.644a3.937 3.937 0 0 1 3.544-1.063 38.823 38.823 0 0 0 18.151-.433 39.808 39.808 0 0 0 28.074-28.074 38.666 38.666 0 0 0 1.064-14.372 7.875 7.875 0 0 0-13.467-4.606l-10.946 11.182a3.937 3.937 0 0 1-5.591 0l-11.025-11.143a3.937 3.937 0 0 1-1.142-2.874 3.937 3.937 0 0 1 1.181-2.835l10.986-11.183a7.875 7.875 0 0 0 1.85-8.19 7.875 7.875 0 0 0-6.496-5.118 39.375 39.374 0 0 0-42.446 29.176 38.627 38.626 0 0 0-.433 18.112 3.937 3.937 0 0 1-.867 3.662l-52.801 52.526-64.417-64.338-2.048-10.395a11.812 11.812 0 0 0-3.228-6.064L56.104 25.983a7.875 7.875 0 0 0-11.143 0L28.266 42.677a7.875 7.875 0 0 0 0 11.143l20.553 20.593a11.812 11.812 0 0 0 6.064 3.229l10.395 2.047 64.378 64.417-52.526 52.8a3.937 3.937 0 0 1-3.544 1.064 38.823 38.823 0 0 0-18.152.433 39.808 39.808 0 0 0-28.192 27.877 38.666 38.666 0 0 0-1.063 14.372 7.875 7.875 0 0 0 5.237 6.497 7.875 7.875 0 0 0 8.229-1.89l10.946-11.183a3.937 3.937 0 0 1 5.591 0l11.143 11.143a3.937 3.937 0 0 1 1.142 2.757 3.937 3.937 0 0 1-1.18 2.834L56.3 261.993a7.875 7.875 0 0 0 4.647 13.426 40.635 40.634 0 0 0 4.37.237 39.375 39.374 0 0 0 38.076-29.413 38.627 38.626 0 0 0 .433-18.112 3.937 3.937 0 0 1 .866-3.662l52.802-52.525 2.835 2.795a11.812 11.812 0 0 0 0 16.734l5.551 5.434a3.937 3.937 0 0 0 1.142.787H167.692l15.946 3.938a11.812 11.812 0 0 0 1.733 14.962l55.715 55.597a11.812 11.812 0 0 0 16.695 0l16.695-16.695a11.812 11.812 0 0 0 0-16.695zM204.586 80.28a11.812 11.812 0 0 0 3.19-10.75 31.106 31.106 0 0 1 .314-14.37 31.775 31.775 0 0 1 22.601-22.562 29.807 29.806 0 0 1 11.458-.827l-11.143 11.182a11.812 11.812 0 0 0 0 16.734L242.15 70.91a11.812 11.812 0 0 0 16.735 0l11.182-11.38a30.83 30.83 0 0 1-1.063 11.38 31.815 31.815 0 0 1-22.444 22.443 30.594 30.594 0 0 1-14.49.315 11.812 11.812 0 0 0-10.788 3.19l-52.644 52.8-16.695-16.694ZM99.298 219.035a11.812 11.812 0 0 0-3.19 10.75 31.106 31.106 0 0 1-.315 14.371A31.775 31.775 0 0 1 73.35 266.6a29.807 29.806 0 0 1-11.458.826l10.985-11.221a11.812 11.812 0 0 0 0-16.695l-11.143-11.104a11.812 11.812 0 0 0-16.734 0l-10.986 11.34a30.83 30.83 0 0 1 .867-11.34 31.815 31.815 0 0 1 22.561-22.6 31.106 31.106 0 0 1 14.49-.315 11.812 11.812 0 0 0 10.789-3.19l52.526-52.643 16.695 16.694zm86.073-56.58a3.937 3.937 0 0 1 2.796 1.141l2.795 2.796-22.286 22.286-2.796-2.796a3.937 3.937 0 0 1 0-5.552l16.735-16.734a3.937 3.937 0 0 1 2.756-1.142zM50.512 31.534l6.93 6.969-16.655 16.655-6.97-6.93Zm3.938 37.287L43.543 57.994 60.277 41.26l10.828 10.867a3.937 3.937 0 0 1 1.103 2.008l1.89 9.529-8.15 8.15-9.53-1.89a3.937 3.937 0 0 1-2.007-1.102zm18.388 7.245 5.552-5.552 93.24 93.081-5.75 5.749zm121.59 98.042 3.346 13.348-7.875 7.875-13.348-3.347zm74.496 75.796-16.734 16.734a3.937 3.937 0 0 1-5.552 0l-55.676-55.715a3.937 3.937 0 0 1-1.142-2.756 3.937 3.937 0 0 1 1.142-2.796l16.695-16.694a3.937 3.937 0 0 1 2.796-1.142 3.937 3.937 0 0 1 2.756 1.142l55.715 55.675a3.937 3.937 0 0 1 1.142 2.796 3.937 3.937 0 0 1-1.142 2.756z"
          id="path8" style="stroke-width:3.93745685;fill-opacity:1"/>
    <path class="cls-1"
          d="M200.688 206.75a1.969 1.969 0 0 0-2.757 0 1.969 1.969 0 0 0 0 2.796l50.085 50.124a2.008 2.008 0 0 0 1.418.59 1.93 1.93 0 0 0 1.378-.59 1.969 1.969 0 0 0 0-2.796z"
          id="path10" style="stroke-width:3.93745685;fill-opacity:1"/>
    <path class="cls-1"
          d="M206.279 201.199a1.977 1.977 0 0 0-2.796 2.795l50.124 50.085a1.93 1.93 0 0 0 1.378.59 1.85 1.85 0 0 0 1.379-.59 1.89 1.89 0 0 0 0-2.757z"
          id="path12" style="stroke-width:3.93745685;fill-opacity:1"/>
    <path class="cls-1"
          d="M211.83 195.647a1.969 1.969 0 0 0-2.795 0 1.969 1.969 0 0 0 0 2.756l50.124 50.124a2.008 2.008 0 0 0 1.418.59 1.969 1.969 0 0 0 1.378-.59 2.008 2.008 0 0 0 0-2.796z"
          id="path14" style="stroke-width:3.93745685;fill-opacity:1"/>
</svg>