<svg height='300px' width='300px' fill="#0039a6" xmlns="http://www.w3.org/2000/svg" version="1.1" x="0px" y="0px"
	 viewBox="0 0 100 100" style="enable-background:new 0 0 100 100;" xml:space="preserve"><style type="text/css">
	.st067{fill:#0039a6;}
</style><g><path class="st067" d="M80.6,60.8c2.1-0.2,3.8-1.9,3.8-4.1c0-2.3-1.8-4.1-4.1-4.1h-3.9l-2.2-7.4c-1-3.4-4.6-6.2-8.2-6.3H34   c-3.6,0.2-7.2,2.9-8.2,6.3l-2.2,7.4h-3.9c-2.3,0-4.1,1.8-4.1,4.1c0,2.2,1.7,3.9,3.8,4.1c-2.6,1.2-4.5,3.9-4.5,7v13.9   c0,1.8,1.4,3.2,3.1,3.2v6.8h0c0,1.4,1.1,2.5,2.5,2.5h5.1c1.4,0,2.5-1.1,2.5-2.5v-6.8h43.6v6.8h0c0,1.4,1.1,2.5,2.5,2.5h5.1   c1.4,0,2.5-1.1,2.5-2.5v-6.8c1.7-0.1,3.1-1.5,3.1-3.2V67.8C85,64.7,83.2,62,80.6,60.8z M28.3,45.9c0.7-2.4,3.5-4.5,6.1-4.5h31.3   c2.5,0,5.3,2.1,6.1,4.5l3.2,11.2H25.1L28.3,45.9z M25.8,74.6c-2.3,0-4.1-1.8-4.1-4.1c0-2.3,1.8-4.1,4.1-4.1c2.3,0,4.1,1.8,4.1,4.1   C29.9,72.8,28,74.6,25.8,74.6z M60.9,79.2H39.1v-5.5h21.8V79.2z M74.2,74.6c-2.3,0-4.1-1.8-4.1-4.1c0-2.3,1.8-4.1,4.1-4.1   c2.3,0,4.1,1.8,4.1,4.1C78.3,72.8,76.5,74.6,74.2,74.6z"></path><path class="st0" d="M76.4,19.9l2.4-4h9.3l-1-1.7c-1.8-3-5.7-6.5-10.7-6.5c-4.3,0-8,2.2-10.2,5.5H33.8c-2.2-3.2-5.9-5.3-10.2-5.3   c-4.5,0-8.6,2.6-10.8,6.8L12,16.3h9.2l2.4,4.1l-2.4,4h-9.3l1,1.7c2.2,3.7,6.3,6,10.7,6c4.2,0,7.9-2.2,10.1-5.4h32.6   c2.2,3.2,5.9,5.4,10.1,5.4c4.6,0,8.7-2.4,10.8-6.4L88,24h-9.2L76.4,19.9z"></path></g></svg>